<?xml version="1.0" encoding="UTF-8" standalone="no"?>
<svg
   xmlns:dc="http://purl.org/dc/elements/1.1/"
   xmlns:cc="http://creativecommons.org/ns#"
   xmlns:rdf="http://www.w3.org/1999/02/22-rdf-syntax-ns#"
   xmlns:svg="http://www.w3.org/2000/svg"
   xmlns="http://www.w3.org/2000/svg"
   xmlns:sodipodi="http://sodipodi.sourceforge.net/DTD/sodipodi-0.dtd"
   xmlns:inkscape="http://www.inkscape.org/namespaces/inkscape"
   id="Capa_1"
   enable-background="new 0 0 512 512"
   height="512"
   viewBox="0 0 512 512"
   width="512"
   version="1.1"
   sodipodi:docname="chandelier-off.svg"
   inkscape:version="1.0.1 (3bc2e813f5, 2020-09-07)">
  <metadata
     id="metadata21">
    <rdf:RDF>
      <cc:Work
         rdf:about="">
        <dc:format>image/svg+xml</dc:format>
        <dc:type
           rdf:resource="http://purl.org/dc/dcmitype/StillImage" />
      </cc:Work>
    </rdf:RDF>
  </metadata>
  <defs
     id="defs19" />
  <sodipodi:namedview
     pagecolor="#ffffff"
     bordercolor="#666666"
     borderopacity="1"
     objecttolerance="10"
     gridtolerance="10"
     guidetolerance="10"
     inkscape:pageopacity="0"
     inkscape:pageshadow="2"
     inkscape:window-width="1920"
     inkscape:window-height="1027"
     id="namedview17"
     showgrid="false"
     inkscape:zoom="1.6386719"
     inkscape:cx="256"
     inkscape:cy="254.16925"
     inkscape:window-x="0"
     inkscape:window-y="25"
     inkscape:window-maximized="1"
     inkscape:current-layer="Capa_1" />
  <g
     id="g14">
    <g
       id="g12">
      <path
         id="path2"
         d="m 135.10742,230.66016 c -2.40768,0.0107 -4.76765,1.1782 -6.20703,3.33007 -16.828,25.15 -25.72266,54.50086 -25.72266,84.88086 v 42.51563 c 0,9.649 7.851,17.5 17.5,17.5 h 75.01172 c 6.1,28.069 30.92655,48.48828 60.31055,48.48828 29.384,0 54.21055,-20.41928 60.31055,-48.48828 h 19.36718 c 4.142,0 7.5,-3.358 7.5,-7.5 0,-4.142 -3.358,-7.5 -7.5,-7.5 h -215 c -1.378,0 -2.5,-1.122 -2.5,-2.5 v -42.51563 c 0,-27.4 8.01946,-53.86801 23.18946,-76.54101 2.303,-3.443 1.3805,-8.09935 -2.0625,-10.40235 -1.29075,-0.86325 -2.75266,-1.274 -4.19727,-1.26757 z m 76.03906,148.22656 h 89.70704 C 295.12552,398.46172 277.112,412.375 256,412.375 c -21.112,0 -39.12452,-13.91328 -44.85352,-33.48828 z" />
      <path
         d="m358.784 205.777c-.001-.001-.003-.003-.005-.004-17.206-15.644-37.522-26.987-59.41-33.454v-19.631c0-14.291-11.626-25.917-25.917-25.917h-9.952v-119.271c0-4.142-3.358-7.5-7.5-7.5s-7.5 3.358-7.5 7.5v119.271h-9.952c-14.291 0-25.917 11.626-25.917 25.917v19.627c-22.064 6.518-42.524 17.991-59.823 33.835-3.054 2.798-3.263 7.542-.465 10.597 2.798 3.054 7.542 3.263 10.597.465 52.604-48.182 133.182-48.123 185.732-.354.005.005.01.009.016.014 28.683 26.081 45.134 63.259 45.134 102v42.515c0 1.378-1.122 2.5-2.5 2.5h-20.644c-4.142 0-7.5 3.358-7.5 7.5s3.358 7.5 7.5 7.5h20.644c9.649 0 17.5-7.851 17.5-17.5v-42.515c0-42.956-18.239-84.178-50.038-113.095zm-74.415-37.092c-17.993-3.378-37.326-3.645-56.738 0v-15.997c0-6.02 4.897-10.917 10.917-10.917h34.904c6.02 0 10.917 4.897 10.917 10.917z"
         id="path4" />
      <path
         id="path6"
         d="m 260.73242,510.16016 c 0.002,0.0332 0.005,0.11299 0.008,0.15039 0.005,-0.004 0.009,-0.008 0.0137,-0.0117 -0.007,-0.0462 -0.0141,-0.0925 -0.0215,-0.13867 z" />
    </g>
  </g>
</svg>
